<svg width="24" height="24" viewBox="0 0 24 24" fill="none" xmlns="http://www.w3.org/2000/svg">
<rect x="0.5" y="-0.5" width="7" height="7" rx="0.5" transform="matrix(1 8.74228e-08 8.74228e-08 -1 4.37114e-08 23)" fill="#A9A9A9" stroke="black"/>
<rect x="0.5" y="-0.5" width="7" height="7" rx="0.5" transform="matrix(1 8.74228e-08 8.74228e-08 -1 4.37114e-08 15)" fill="#D9D9D9" stroke="black"/>
<rect x="0.5" y="-0.5" width="7" height="7" rx="0.5" transform="matrix(1 8.74228e-08 8.74228e-08 -1 4.37114e-08 7)" fill="#D9D9D9" stroke="black"/>
<rect x="0.5" y="-0.5" width="7" height="7" rx="0.5" transform="matrix(1 8.74228e-08 8.74228e-08 -1 8 23)" fill="#696969" stroke="black"/>
<rect x="0.5" y="-0.5" width="7" height="7" rx="0.5" transform="matrix(1 8.74228e-08 8.74228e-08 -1 8 15)" fill="#D9D9D9" stroke="black"/>
<rect x="0.5" y="-0.5" width="7" height="7" rx="0.5" transform="matrix(1 8.74228e-08 8.74228e-08 -1 8 7)" fill="#D9D9D9" stroke="black"/>
<rect x="0.5" y="-0.5" width="7" height="7" rx="0.5" transform="matrix(1 8.74228e-08 8.74228e-08 -1 16 23)" fill="#383838" stroke="black"/>
<rect x="0.5" y="-0.5" width="7" height="7" rx="0.5" transform="matrix(1 8.74228e-08 8.74228e-08 -1 16 15)" fill="#D9D9D9" stroke="black"/>
<rect x="0.5" y="-0.5" width="7" height="7" rx="0.5" transform="matrix(1 8.74228e-08 8.74228e-08 -1 16 7)" fill="#D9D9D9" stroke="black"/>
</svg>
