<svg width="24" height="24" viewBox="0 0 24 24" fill="none" xmlns="http://www.w3.org/2000/svg">
<rect x="23.5" y="23.5" width="7" height="7" rx="0.5" transform="rotate(180 23.5 23.5)" fill="#A9A9A9" stroke="black"/>
<rect x="23.5" y="15.5" width="7" height="7" rx="0.5" transform="rotate(180 23.5 15.5)" fill="#D9D9D9" stroke="black"/>
<rect x="23.5" y="7.5" width="7" height="7" rx="0.5" transform="rotate(180 23.5 7.5)" fill="#D9D9D9" stroke="black"/>
<rect x="15.5" y="23.5" width="7" height="7" rx="0.5" transform="rotate(180 15.5 23.5)" fill="#696969" stroke="black"/>
<rect x="15.5" y="15.5" width="7" height="7" rx="0.5" transform="rotate(180 15.5 15.5)" fill="#D9D9D9" stroke="black"/>
<rect x="15.5" y="7.5" width="7" height="7" rx="0.5" transform="rotate(180 15.5 7.5)" fill="#D9D9D9" stroke="black"/>
<rect x="7.5" y="23.5" width="7" height="7" rx="0.5" transform="rotate(180 7.5 23.5)" fill="#383838" stroke="black"/>
<rect x="7.5" y="15.5" width="7" height="7" rx="0.5" transform="rotate(180 7.5 15.5)" fill="#D9D9D9" stroke="black"/>
<rect x="7.5" y="7.5" width="7" height="7" rx="0.5" transform="rotate(180 7.5 7.5)" fill="#D9D9D9" stroke="black"/>
</svg>
