<svg width="27" height="28" viewBox="0 0 27 28" fill="none" xmlns="http://www.w3.org/2000/svg">
<rect x="0.5" y="-0.5" width="7" height="7" rx="0.5" transform="matrix(1 8.74228e-08 8.74228e-08 -1 4.37114e-08 23)" fill="#D9D9D9" stroke="black"/>
<rect x="0.5" y="-0.5" width="7" height="7" rx="0.5" transform="matrix(1 8.74228e-08 8.74228e-08 -1 4.37114e-08 15)" fill="#D9D9D9" stroke="black"/>
<rect x="0.5" y="-0.5" width="7" height="7" rx="0.5" transform="matrix(1 8.74228e-08 8.74228e-08 -1 4.37114e-08 7)" fill="#D9D9D9" stroke="black"/>
<rect x="0.5" y="-0.5" width="7" height="7" rx="0.5" transform="matrix(1 8.74228e-08 8.74228e-08 -1 8 23)" fill="#D9D9D9" stroke="black"/>
<rect x="0.5" y="-0.5" width="7" height="7" rx="0.5" transform="matrix(1 8.74228e-08 8.74228e-08 -1 8 15)" fill="#D9D9D9" stroke="black"/>
<rect x="0.5" y="-0.5" width="7" height="7" rx="0.5" transform="matrix(1 8.74228e-08 8.74228e-08 -1 8 7)" fill="#D9D9D9" stroke="black"/>
<rect x="0.5" y="-0.5" width="7" height="7" rx="0.5" transform="matrix(1 8.74228e-08 8.74228e-08 -1 16 23)" fill="#D9D9D9" stroke="black"/>
<rect x="0.5" y="-0.5" width="7" height="7" rx="0.5" transform="matrix(1 8.74228e-08 8.74228e-08 -1 16 15)" fill="#D9D9D9" stroke="black"/>
<rect x="0.5" y="-0.5" width="7" height="7" rx="0.5" transform="matrix(1 8.74228e-08 8.74228e-08 -1 16 7)" fill="#D9D9D9" stroke="black"/>
<rect x="3.5" y="4.5" width="7" height="7" rx="0.5" fill="#999999" stroke="black"/>
<rect x="3.5" y="12.5" width="7" height="7" rx="0.5" fill="white" stroke="black"/>
<rect x="3.5" y="20.5" width="7" height="7" rx="0.5" fill="#383838" stroke="black"/>
<rect x="11.5" y="4.5" width="7" height="7" rx="0.5" fill="#888888" stroke="black"/>
<rect x="11.5" y="12.5" width="7" height="7" rx="0.5" fill="white" stroke="black"/>
<rect x="11.5" y="20.5" width="7" height="7" rx="0.5" fill="#494949" stroke="black"/>
<rect x="19.5" y="4.5" width="7" height="7" rx="0.5" fill="#797979" stroke="black"/>
<rect x="19.5" y="12.5" width="7" height="7" rx="0.5" fill="#747474" stroke="black"/>
<rect x="19.5" y="20.5" width="7" height="7" rx="0.5" fill="#585858" stroke="black"/>
</svg>
