<svg width="24" height="24" viewBox="0 0 24 24" fill="none" xmlns="http://www.w3.org/2000/svg">
<rect x="0.5" y="0.5" width="7" height="7" rx="0.5" transform="matrix(4.37114e-08 1 1 -4.37114e-08 2.18557e-08 -2.18557e-08)" fill="#A9A9A9" stroke="black"/>
<rect x="0.5" y="0.5" width="7" height="7" rx="0.5" transform="matrix(4.37114e-08 1 1 -4.37114e-08 8 -2.18557e-08)" fill="#D9D9D9" stroke="black"/>
<rect x="0.5" y="0.5" width="7" height="7" rx="0.5" transform="matrix(4.37114e-08 1 1 -4.37114e-08 16 -2.18557e-08)" fill="#D9D9D9" stroke="black"/>
<rect x="0.5" y="0.5" width="7" height="7" rx="0.5" transform="matrix(4.37114e-08 1 1 -4.37114e-08 2.18557e-08 8)" fill="#696969" stroke="black"/>
<rect x="0.5" y="0.5" width="7" height="7" rx="0.5" transform="matrix(4.37114e-08 1 1 -4.37114e-08 8 8)" fill="#D9D9D9" stroke="black"/>
<rect x="0.5" y="0.5" width="7" height="7" rx="0.5" transform="matrix(4.37114e-08 1 1 -4.37114e-08 16 8)" fill="#D9D9D9" stroke="black"/>
<rect x="0.5" y="0.5" width="7" height="7" rx="0.5" transform="matrix(4.37114e-08 1 1 -4.37114e-08 2.18557e-08 16)" fill="#383838" stroke="black"/>
<rect x="0.5" y="0.5" width="7" height="7" rx="0.5" transform="matrix(4.37114e-08 1 1 -4.37114e-08 8 16)" fill="#D9D9D9" stroke="black"/>
<rect x="0.5" y="0.5" width="7" height="7" rx="0.5" transform="matrix(4.37114e-08 1 1 -4.37114e-08 16 16)" fill="#D9D9D9" stroke="black"/>
</svg>
