<svg width="24" height="24" viewBox="0 0 24 24" fill="none" xmlns="http://www.w3.org/2000/svg">
<rect x="0.5" y="23.5" width="7" height="7" rx="0.5" transform="rotate(-90 0.5 23.5)" fill="#696969" stroke="black"/>
<rect x="8.5" y="23.5" width="7" height="7" rx="0.5" transform="rotate(-90 8.5 23.5)" fill="#494949" stroke="black"/>
<rect x="16.5" y="23.5" width="7" height="7" rx="0.5" transform="rotate(-90 16.5 23.5)" fill="#D9D9D9" stroke="black"/>
<rect x="0.5" y="15.5" width="7" height="7" rx="0.5" transform="rotate(-90 0.5 15.5)" fill="#999999" stroke="black"/>
<rect x="8.5" y="15.5" width="7" height="7" rx="0.5" transform="rotate(-90 8.5 15.5)" fill="#494949" stroke="black"/>
<rect x="16.5" y="15.5" width="7" height="7" rx="0.5" transform="rotate(-90 16.5 15.5)" fill="#383838" stroke="black"/>
<rect x="0.5" y="7.5" width="7" height="7" rx="0.5" transform="rotate(-90 0.5 7.5)" fill="#383838" stroke="black"/>
<rect x="8.5" y="7.5" width="7" height="7" rx="0.5" transform="rotate(-90 8.5 7.5)" fill="#1E1E1E" stroke="black"/>
<rect x="16.5" y="7.5" width="7" height="7" rx="0.5" transform="rotate(-90 16.5 7.5)" fill="#888888" stroke="black"/>
</svg>
