<svg width="24" height="24" viewBox="0 0 24 24" fill="none" xmlns="http://www.w3.org/2000/svg">
<rect x="-0.5" y="-0.5" width="7" height="7" rx="0.5" transform="matrix(4.37114e-08 -1 -1 -4.37114e-08 23 23)" fill="#A9A9A9" stroke="black"/>
<rect x="-0.5" y="-0.5" width="7" height="7" rx="0.5" transform="matrix(4.37114e-08 -1 -1 -4.37114e-08 15 23)" fill="#D9D9D9" stroke="black"/>
<rect x="-0.5" y="-0.5" width="7" height="7" rx="0.5" transform="matrix(4.37114e-08 -1 -1 -4.37114e-08 7 23)" fill="#D9D9D9" stroke="black"/>
<rect x="-0.5" y="-0.5" width="7" height="7" rx="0.5" transform="matrix(4.37114e-08 -1 -1 -4.37114e-08 23 15)" fill="#696969" stroke="black"/>
<rect x="-0.5" y="-0.5" width="7" height="7" rx="0.5" transform="matrix(4.37114e-08 -1 -1 -4.37114e-08 15 15)" fill="#D9D9D9" stroke="black"/>
<rect x="-0.5" y="-0.5" width="7" height="7" rx="0.5" transform="matrix(4.37114e-08 -1 -1 -4.37114e-08 7 15)" fill="#D9D9D9" stroke="black"/>
<rect x="-0.5" y="-0.5" width="7" height="7" rx="0.5" transform="matrix(4.37114e-08 -1 -1 -4.37114e-08 23 7)" fill="#383838" stroke="black"/>
<rect x="-0.5" y="-0.5" width="7" height="7" rx="0.5" transform="matrix(4.37114e-08 -1 -1 -4.37114e-08 15 7)" fill="#D9D9D9" stroke="black"/>
<rect x="-0.5" y="-0.5" width="7" height="7" rx="0.5" transform="matrix(4.37114e-08 -1 -1 -4.37114e-08 7 7)" fill="#D9D9D9" stroke="black"/>
</svg>
