<svg width="24" height="24" viewBox="0 0 24 24" fill="none" xmlns="http://www.w3.org/2000/svg">
<rect x="-0.5" y="0.5" width="7" height="7" rx="0.5" transform="matrix(-1 0 0 1 23 0)" fill="#A9A9A9" stroke="black"/>
<rect x="-0.5" y="0.5" width="7" height="7" rx="0.5" transform="matrix(-1 0 0 1 23 8)" fill="#D9D9D9" stroke="black"/>
<rect x="-0.5" y="0.5" width="7" height="7" rx="0.5" transform="matrix(-1 0 0 1 23 16)" fill="#D9D9D9" stroke="black"/>
<rect x="-0.5" y="0.5" width="7" height="7" rx="0.5" transform="matrix(-1 0 0 1 15 0)" fill="#696969" stroke="black"/>
<rect x="-0.5" y="0.5" width="7" height="7" rx="0.5" transform="matrix(-1 0 0 1 15 8)" fill="#D9D9D9" stroke="black"/>
<rect x="-0.5" y="0.5" width="7" height="7" rx="0.5" transform="matrix(-1 0 0 1 15 16)" fill="#D9D9D9" stroke="black"/>
<rect x="-0.5" y="0.5" width="7" height="7" rx="0.5" transform="matrix(-1 0 0 1 7 0)" fill="#383838" stroke="black"/>
<rect x="-0.5" y="0.5" width="7" height="7" rx="0.5" transform="matrix(-1 0 0 1 7 8)" fill="#D9D9D9" stroke="black"/>
<rect x="-0.5" y="0.5" width="7" height="7" rx="0.5" transform="matrix(-1 0 0 1 7 16)" fill="#D9D9D9" stroke="black"/>
</svg>
